<svg width="48" height="49" viewBox="0 0 48 49" fill="none" xmlns="http://www.w3.org/2000/svg">
<path d="M42.0001 13.346H29.9161V10.154C29.9161 8.80134 29.3788 7.50414 28.4224 6.5477C27.4659 5.59127 26.1687 5.05396 24.8162 5.05396H6.00015C4.64851 5.05712 3.35314 5.59545 2.3974 6.55121C1.44165 7.50695 0.903314 8.80232 0.900146 10.154V26.0779C0.900146 27.4306 1.43747 28.7278 2.39389 29.6842C3.35034 30.6406 4.64754 31.1779 6.00015 31.1779H7.92015V35.3059C7.91979 35.5924 8.0008 35.873 8.15376 36.1153C8.30673 36.3574 8.52534 36.5512 8.78415 36.6739C9.0462 36.7889 9.33483 36.8296 9.61843 36.7915C9.90204 36.7534 10.1697 36.638 10.3921 36.4579L16.7041 31.1779H18.0842V34.3579C18.0842 35.7137 18.6228 37.0139 19.5815 37.9727C20.5401 38.9314 21.8403 39.4699 23.1961 39.4699H31.2962L37.6082 44.7619C37.8824 44.9866 38.2257 45.1096 38.5802 45.1099C38.8002 45.1096 39.0174 45.0604 39.2161 44.9659C39.4731 44.8441 39.6905 44.6522 39.8433 44.4122C39.9962 44.1724 40.0782 43.8943 40.0802 43.6099V39.4699H42.0001C43.3527 39.4699 44.6499 38.9326 45.6065 37.9762C46.5629 37.0198 47.1002 35.7226 47.1002 34.3699V18.4459C47.097 17.0944 46.5586 15.799 45.6028 14.8432C44.6472 13.8875 43.3518 13.3491 42.0001 13.346ZM16.1521 28.1779C15.8024 28.1839 15.4646 28.3063 15.1922 28.5259L10.9201 32.1259V29.7259C10.9201 29.3281 10.7621 28.9466 10.4808 28.6652C10.1995 28.384 9.81796 28.2259 9.42015 28.2259H6.00015C5.44318 28.2259 4.90905 28.0046 4.51522 27.6109C4.1214 27.217 3.90015 26.6828 3.90015 26.1259V10.154C3.9033 9.59796 4.12555 9.06566 4.5187 8.67251C4.91185 8.27936 5.44416 8.0571 6.00015 8.05395H24.8162C25.3731 8.05395 25.9073 8.2752 26.301 8.66903C26.6949 9.06285 26.9161 9.59699 26.9161 10.154V26.0659C26.9161 26.3432 26.8616 26.6179 26.7554 26.8742C26.6493 27.1304 26.4936 27.3632 26.2976 27.5593C26.1015 27.7555 25.8685 27.911 25.6124 28.0172C25.3561 28.1233 25.0815 28.1779 24.8041 28.1779H16.1521ZM44.1002 34.3699C44.1002 34.9268 43.8789 35.461 43.485 35.8549C43.0913 36.2486 42.5571 36.4699 42.0001 36.4699H38.5802C38.1824 36.4699 37.8008 36.628 37.5195 36.9092C37.2383 37.1906 37.0802 37.5721 37.0802 37.9699V40.3699L32.8082 36.7699C32.5409 36.5399 32.2006 36.4124 31.8481 36.4099H23.1961C22.636 36.4099 22.0988 36.1874 21.7028 35.7913C21.3066 35.3953 21.0842 34.8581 21.0842 34.2979V31.1779H24.8162C26.1687 31.1779 27.4659 30.6406 28.4224 29.6842C29.3788 28.7278 29.9161 27.4306 29.9161 26.0779V16.3579H42.0001C42.5562 16.361 43.0884 16.5833 43.4815 16.9765C43.8747 17.3696 44.097 17.902 44.1002 18.4579V34.3699Z" fill="#1D1C1D"/>
<path d="M9.16815 16.3219C8.85412 16.3289 8.54917 16.4285 8.29149 16.6082C8.0338 16.7878 7.83486 17.0395 7.71955 17.3317C7.60426 17.6239 7.57774 17.9435 7.64334 18.2507C7.70892 18.5579 7.86369 18.8389 8.08827 19.0585C8.31283 19.2781 8.59722 19.4266 8.9058 19.4854C9.21436 19.544 9.5334 19.5104 9.82294 19.3886C10.1125 19.2668 10.3596 19.0624 10.5335 18.8008C10.7073 18.539 10.8001 18.232 10.8001 17.9179C10.8019 17.7047 10.7605 17.4935 10.6787 17.2967C10.5968 17.0999 10.4761 16.9217 10.3237 16.7726C10.1713 16.6237 9.99045 16.507 9.79188 16.4294C9.59332 16.352 9.38118 16.3154 9.16815 16.3219Z" fill="#1D1C1D"/>
<path d="M15.4441 16.3219C15.129 16.3243 14.8216 16.42 14.5607 16.5967C14.2998 16.7735 14.0971 17.0236 13.9782 17.3155C13.8592 17.6072 13.8293 17.9278 13.8922 18.2366C13.9552 18.5453 14.1081 18.8287 14.3318 19.0507C14.5555 19.2727 14.8399 19.4234 15.1491 19.484C15.4584 19.5446 15.7786 19.5124 16.0696 19.3913C16.3605 19.2701 16.6092 19.0655 16.7839 18.8033C16.9588 18.5411 17.0521 18.233 17.0521 17.9179C17.0521 17.7073 17.0104 17.4988 16.9294 17.3044C16.8486 17.11 16.7299 16.9334 16.5804 16.7851C16.431 16.6367 16.2535 16.5194 16.0585 16.4399C15.8635 16.3604 15.6547 16.3204 15.4441 16.3219Z" fill="#1D1C1D"/>
<path d="M21.732 19.5139C22.0476 19.5139 22.3563 19.4203 22.6187 19.2449C22.8812 19.0696 23.0858 18.8203 23.2065 18.5287C23.3273 18.2371 23.3589 17.9161 23.2974 17.6065C23.2358 17.2969 23.0838 17.0125 22.8606 16.7893C22.6374 16.5661 22.353 16.4141 22.0434 16.3525C21.7338 16.291 21.4128 16.3226 21.1212 16.4434C20.8296 16.5641 20.5803 16.7687 20.405 17.0312C20.2296 17.2936 20.136 17.6023 20.136 17.9179C20.1344 18.1279 20.1746 18.3362 20.2542 18.5305C20.3339 18.7249 20.4515 18.9014 20.6 19.0499C20.7485 19.1984 20.925 19.316 21.1194 19.3957C21.3137 19.4753 21.522 19.5155 21.732 19.5139Z" fill="#1D1C1D"/>
</svg>
